<?xml version="1.0" standalone="no"?>
<!DOCTYPE svg PUBLIC "-//W3C//DTD SVG 20010904//EN"
 "http://www.w3.org/TR/2001/REC-SVG-20010904/DTD/svg10.dtd">
<svg version="1.0" xmlns="http://www.w3.org/2000/svg"
 width="512.000000pt" height="512.000000pt" viewBox="0 0 512.000000 512.000000"
 preserveAspectRatio="xMidYMid meet">
<metadata>
Created by potrace 1.11, written by Peter Selinger 2001-2013
</metadata>
<g transform="translate(0.000000,512.000000) scale(0.100000,-0.100000)"
fill="#000000" stroke="none">
<path d="M1300 5101 c-64 -20 -124 -57 -161 -97 -65 -71 -83 -121 -179 -488
-10 -39 -41 -156 -69 -261 -29 -104 -74 -275 -103 -380 -28 -104 -75 -280
-105 -390 -60 -220 -67 -288 -37 -379 44 -133 152 -225 310 -261 10 -2 53 -14
94 -25 41 -11 82 -22 90 -24 8 -2 161 -43 340 -91 295 -80 365 -98 410 -109 8
-2 110 -30 225 -61 116 -31 217 -59 225 -60 8 -2 44 -11 80 -20 182 -48 363
34 441 199 36 75 36 100 4 132 l-26 26 17 68 c16 65 18 68 50 75 23 4 38 14
47 33 15 29 18 40 142 502 46 173 98 367 115 430 17 63 33 123 35 132 2 10 16
62 31 115 15 54 28 124 30 156 4 104 -39 209 -117 285 -60 60 -98 75 -344 141
-44 12 -213 57 -375 100 -162 44 -338 91 -390 105 -52 14 -156 41 -230 61
-426 114 -452 118 -550 86z"/>
<path d="M3525 2646 c-66 -18 -192 -53 -280 -76 -88 -23 -198 -53 -245 -65
-124 -34 -416 -112 -480 -129 -30 -8 -131 -36 -225 -61 -93 -26 -180 -49 -193
-51 -89 -17 -201 -104 -244 -187 -63 -125 -60 -181 35 -532 42 -154 84 -314
96 -355 11 -41 32 -120 47 -175 14 -55 40 -148 55 -208 63 -234 88 -327 118
-441 18 -66 43 -141 56 -166 33 -65 97 -125 173 -162 94 -47 173 -47 339 -2
155 42 353 94 373 99 8 2 168 45 355 95 817 218 792 210 866 277 74 67 119
170 120 273 0 113 -26 158 -87 151 -7 -1 -21 31 -32 71 l-19 73 22 20 c34 30
36 47 14 127 -12 40 -22 80 -24 88 -2 8 -29 110 -60 225 -31 116 -63 233 -70
260 -72 284 -173 640 -193 683 -14 29 -47 73 -74 98 -115 107 -240 127 -443
70z"/>
</g>
</svg>
